<svg xmlns="http://www.w3.org/2000/svg" width="20px" height="35px" class="mt-1 mr-4"><path fill-rule="evenodd" fill="rgb(109, 109, 109)" d="M3.333,0.000 C1.487,0.000 -0.000,1.341 -0.000,3.006 L-0.000,31.994 C-0.000,33.659 1.487,35.000 3.333,35.000 L16.667,35.000 C18.513,35.000 20.000,33.659 20.000,31.994 L20.000,3.006 C20.000,1.341 18.513,0.000 16.667,0.000 L3.333,0.000 ZM2.083,4.758 L17.917,4.758 L17.917,29.739 L2.083,29.739 L2.083,4.758 ZM10.000,30.867 C10.920,30.867 11.667,31.540 11.667,32.370 C11.667,33.200 10.920,33.873 10.000,33.873 C9.080,33.873 8.333,33.200 8.333,32.370 C8.333,31.540 9.080,30.867 10.000,30.867 Z"/></svg>